<svg xmlns="http://www.w3.org/2000/svg" xmlns:xlink="http://www.w3.org/1999/xlink" viewBox="0 0 124 66">
<g style="fill: #fff;" id="NavbarFooter-blizzard-lower">
    <polygon points="9.53 64.97 5.89 64.97 5.89 60.03 9.48 60.03 9.48 60.94 7.12 60.93 7.12 61.97 9.37 61.97 9.37 62.88 7.12 62.87 7.12 64.06 9.53 64.06 9.53 64.97"></polygon>
    <polygon points="18.54 64.87 17.56 64.87 15 61.89 15 64.86 13.84 64.86 13.84 60.22 14.9 60.22 17.38 63.06 17.38 60.23 18.54 60.23 18.54 64.87"></polygon>
    <polygon points="28.71 60.93 26.92 60.92 26.92 64.97 25.69 64.97 25.69 60.92 23.89 60.92 23.89 60.01 28.71 60.02 28.71 60.93"></polygon>
    <polygon points="36.5 64.97 32.88 64.96 32.88 60.06 36.45 60.06 36.45 60.96 34.1 60.96 34.1 61.99 36.34 61.99 36.34 62.89 34.1 62.89 34.1 64.06 36.5 64.07 36.5 64.97"></polygon>
    <path d="M44,60a1.46,1.46,0,0,1,1.59,1.4,1.25,1.25,0,0,1-.83,1.19c0.5,0.25.65,0.85,1.33,2.28H44.72c-0.52-1-.71-2-1.37-2H43v2H41.8V60H44Zm-1,2h0.64a0.57,0.57,0,0,0,.66-0.55,0.56,0.56,0,0,0-.69-0.55H43V62Z"></path>
    <polygon points="54.71 60.96 52.92 60.96 52.92 64.99 51.68 64.99 51.68 60.95 49.88 60.95 49.88 60.05 54.71 60.06 54.71 60.96"></polygon>
    <path d="M63.21,65H61.93L61.54,64H59.41L59,65H57.79l1.92-4.76h1.38Zm-2.79-3.63-0.7,1.85h1.47Z"></path>
    <polygon points="68.73 64.9 67.82 64.9 67.82 60.01 68.73 60.01 68.73 64.9"></polygon>
    <polygon points="78.63 65 77.62 65 74.96 61.91 74.96 64.99 73.76 64.99 73.76 60.18 74.86 60.18 77.43 63.13 77.43 60.19 78.63 60.19 78.63 65"></polygon>
    <polygon points="87.89 60.04 88.97 60.04 88.97 65.02 87.73 65.01 87.73 61.91 86.39 63.46 86.2 63.46 84.86 61.9 84.86 65.01 83.62 65.01 83.62 60.03 84.7 60.03 86.29 61.88 87.89 60.04"></polygon>
    <polygon points="98.07 64.93 94.58 64.92 94.58 60.19 98.02 60.19 98.02 61.06 95.76 61.06 95.76 62.05 97.92 62.05 97.92 62.92 95.76 62.92 95.76 64.05 98.07 64.06 98.07 64.93"></polygon>
    <polygon points="107.63 65 106.61 65 103.9 61.86 103.9 64.99 102.68 64.99 102.68 60.1 103.8 60.1 106.41 63.1 106.41 60.11 107.63 60.11 107.63 65"></polygon>
    <polygon points="116.66 60.93 114.88 60.93 114.88 64.94 113.65 64.94 113.65 60.93 111.88 60.93 111.88 60.03 116.66 60.03 116.66 60.93"></polygon>
</g>
</svg>
