<svg xmlns="http://www.w3.org/2000/svg" xmlns:xlink="http://www.w3.org/1999/xlink" viewBox="0 0 124 66">
<g id="NavbarFooter-blizzard-upper">
    <path style="fill: #00aeff;" d="M75.81,45.29a5.38,5.38,0,0,0,.44,1.41v4.07l-0.07,0a4,4,0,0,0-.36.27,0.89,0.89,0,0,1,0,.13,1.62,1.62,0,0,1,0,.19l0,0.14H69.26l0-.08a3.85,3.85,0,0,0-.27-0.39l-2.15-.23a4.34,4.34,0,0,1-1.65,1.09H65.09c-1.64,0-2.56.08-3.5,0.08a10.93,10.93,0,0,1-2.52.81H59l0-.05a1.57,1.57,0,0,1-.44-1.12c0-.32.07-0.59,0.07-0.73V49.19l0.07-.05a1.46,1.46,0,0,0,.4-0.32,0.83,0.83,0,0,0,.13-0.5A3.17,3.17,0,0,0,59,47.46l0-.12,0.1-.07a2,2,0,0,0,.81-0.76A1.35,1.35,0,0,0,60,46a3.87,3.87,0,0,0-.11-0.85l0-.12,0.1-.06a1.47,1.47,0,0,0,.39-0.31,0.8,0.8,0,0,0,.11-0.46,2.93,2.93,0,0,0-.14-0.79V43.3c0-.24.32-0.68,0.44-1.1a4.83,4.83,0,0,0,.15-1.3,12.72,12.72,0,0,0-.16-1.82,2.6,2.6,0,0,0-.42-1A9.72,9.72,0,0,1,59.89,35a23.57,23.57,0,0,1,.43-4.25l2.59-6.89a2.92,2.92,0,0,1-.42-0.49,0.72,0.72,0,0,1,0-.24c0-.16,0-0.24,0-0.4V22.62l0.05-.05a2.2,2.2,0,0,0,.6-1.28c0-.23,0-0.37,0-0.5s0-.13,0-0.22c0.1-.51,1.17-1.81,1.3-3a4.91,4.91,0,0,0,0-.54c0-.37,0-0.72,0-0.73a19.93,19.93,0,0,1,3-5.69V9l0.07,0a0.78,0.78,0,0,0,.36-0.43h0c0-.13,0,0-0.23-0.31h-2.3l0-.08A1.87,1.87,0,0,0,65,7.71a0.92,0.92,0,0,0-.68-0.23,11.18,11.18,0,0,0-1.47.28,1.41,1.41,0,0,0-.69.89,11.79,11.79,0,0,0-.78,2.83c-0.41,2.59-.84,2.95-1.39,3H59.77a0.58,0.58,0,0,0-.56.39L59.11,15,59,14.86c-0.19-.17-0.44-0.41-0.52-0.45l-0.11-.07,0-.12a2.66,2.66,0,0,0,.21-1c0-.46-0.21-0.7-0.23-1.2A1.72,1.72,0,0,1,59,11V3H73.89l0,0.08c0.26,0.43.28,0.41,0.29,0.4h0.34l0.15,0V4l0,0c-0.39.44-.53,2-1.79,3.23a6.24,6.24,0,0,1,.06.81,2.9,2.9,0,0,1-.07.69,3.1,3.1,0,0,1-1.29,1.77,5.28,5.28,0,0,1,.07.81,2.57,2.57,0,0,1-.08.7c-0.3.75-.83,0.41-0.86,1.27,0,0-.24,1.65-0.46,2.7s-0.76,1.64-.75,2.43a2.51,2.51,0,0,0,0,.41l-0.13,4.24-0.07,0c-0.63.38-.52,2.81-1.66,4v1.51c-0.35.92-1,.87-1.29,2.05V35.6l-1.3,3.74c0,0.14.05,0.67,0.05,1.25a7.3,7.3,0,0,1-.06,1,10.71,10.71,0,0,1-1.35,3.3l-0.19.31a1,1,0,0,1,0,.11,5.21,5.21,0,0,1-.41,1.44,3.24,3.24,0,0,1-.39,1,0.45,0.45,0,0,0,.34.22,0.85,0.85,0,0,0,.29-0.38l0.08-.14,0.14,0.07a1.68,1.68,0,0,0,.75.17c0.48,0,1-.18,1.63-0.18,0.17,0,.2-0.15.25-0.49a1.84,1.84,0,0,1,.42-1.1c0.65-.69,2.09-0.83,2.41-1.08,1.76-1.22,2.48-.65,3.64-2.52l0.11-.17,0.15,0.14a3.67,3.67,0,0,1,.4.43h2.18l0,0.08A2.37,2.37,0,0,1,76.24,44,2.41,2.41,0,0,0,75.81,45.29Zm11-8.76a42.37,42.37,0,0,1-.19,5.28v0.06l-0.05,0a6.58,6.58,0,0,0-.87,2.16,7.56,7.56,0,0,1-1.23,2.69v2.47l-0.07.05c-0.5.31-.58,2.21-1.23,3v1.54l-0.07.05a2.76,2.76,0,0,0-.36.28v2l-0.07.05a1.27,1.27,0,0,1-.75.5,0.25,0.25,0,0,1-.22-0.13,1.18,1.18,0,0,0-.24.11l-0.24.14v-2.7l-1.31-4.26V48.57c0.08-1-2.13-1.71-2.16-3.75V44.76l0,0A11.45,11.45,0,0,0,80.56,38h0c0.07-.26-1.11-1.11-2.37-1.77a21.09,21.09,0,0,1-2.83-1.68H74.57l0.37,1.09V38c0.58,0.15.95,0.86,1.31,0.91a0.26,0.26,0,0,1,.23.24,13.53,13.53,0,0,0-.68,1.24l0,0.15H75.63s-1.33-.09-2.41-0.09a5.89,5.89,0,0,0-1.21.08c-2.06.69-4.4,1.57-4.41,1.57l-0.13,0L67.4,42c-0.56-.94-0.09-0.68-0.61-1.43l-0.07-.1,0.07-.09a9,9,0,0,1,1.54-1.76,4.34,4.34,0,0,1,.4-1.76c0.45-.67,1.43-0.86,1.33-1.09a0.68,0.68,0,0,0-.36-0.33l-0.09-.06v-0.1s0.16-1.38.3-2.13A2.49,2.49,0,0,1,70,32.75a4.2,4.2,0,0,1-.21-1.19,1.36,1.36,0,0,1,.27-0.89,2,2,0,0,1,.39-0.32V28.46l0.07,0a0.57,0.57,0,0,0,.36-0.57c0-.15,0-0.07-0.13-0.16a0.57,0.57,0,0,1-.33-0.6,1.81,1.81,0,0,1,0-.34,3,3,0,0,0,.07-0.64c0-.42-0.11-0.69-0.11-1.08a1.8,1.8,0,0,1,.09-0.57A7.64,7.64,0,0,1,71.37,23a6.34,6.34,0,0,0,.49-2.43v-0.1l0.08,0c1-.51.4-2.7,1.16-4.45a7,7,0,0,1,1.19-2.12,1,1,0,0,0,0-.15c0-.31-0.15-0.57-0.16-0.91a0.73,0.73,0,0,1,.17-0.48,1.67,1.67,0,0,1,.42-0.34,14.16,14.16,0,0,1,.94-2.44,3.5,3.5,0,0,1,.85-1.28V6.33l0.07-.05a0.73,0.73,0,0,0,.33-0.37,1.36,1.36,0,0,1,.58-0.57l0,0h0c0.4,0,.45-0.4.46-1,0-.16,0-0.32,0-0.49,0-.6.1-1.34,0.94-1.34,1.45,0.07,1.28,2.43,1.45,2.67,1.16,2.53,1.48,2.13,1.53,2.76V9.23c0,1.09,1.57,5.18,1.58,5.2l1.36,5.36c0.14,0.12.25,0.22,0.38,0.31l0.07,0V22a1.19,1.19,0,0,1,.47.84c0,0.19-.06.31-0.05,0.39a0.64,0.64,0,0,0,.38.47l0.07,0v2.55l-0.12,0s0,0.08,0,.13a35.42,35.42,0,0,0,.58,4.65l0,0v0.08C86.77,31.92,86.82,34.23,86.82,36.54ZM76,30.06a3.2,3.2,0,0,1-.06.76l0,0.06a7.63,7.63,0,0,1,.79,0,5.84,5.84,0,0,1,1.27.13c1.26,0.27,2,1.15,2.79,1.4h0.37c0-.6.06-2.79,0.06-4.53,0-1,0-1.8-.06-2.12a3.33,3.33,0,0,1-.34-1.57,2.87,2.87,0,0,0-.48-1.66c-0.51-.49-1.18-0.23-1.79-0.85a4.78,4.78,0,0,1-.79-1.46l-0.07,2v0.08l-0.07,0a1.53,1.53,0,0,0-.48.9,1,1,0,0,1-.75.75,8.09,8.09,0,0,1-.43,2.82,4,4,0,0,0,0,.63C75.87,28.17,76,29.27,76,30.06ZM58.05,37.83l-0.18.05c-0.67.15-.36,0.69-0.92,1.28a7.75,7.75,0,0,0-.13,1.91c0,1.93.15,4.55,0.15,4.55V45.8H56.8a3.12,3.12,0,0,0-1.59.86l-0.05.08H50.21l-0.05-.08c-0.28-.45-0.28-0.44-0.31-0.42s-0.23,0-.52,0a0.87,0.87,0,0,0-.83.4,0.92,0.92,0,0,1-.81.54h0a3.14,3.14,0,0,1-1.45-.7H42.85l0-.08a1.42,1.42,0,0,1-.46-0.79,0.92,0.92,0,0,1,.3-0.42L43,44.86V42l0.07,0c0.41-.3.37-0.27,0.38-0.35s0-.17,0-0.33a0.24,0.24,0,0,1,0-.05l-0.07-.17c-0.06-.14-0.14-0.32-0.23-0.5a3,3,0,0,0-.49-0.78l-0.14-.1,0.1-.13a1.27,1.27,0,0,0,.27-0.77A1.33,1.33,0,0,0,42.6,38l0,0v0a4.73,4.73,0,0,1,0-.7c0-1.37.49-3,.48-3.8V33.27l0.07-.05c0.43-.25.29-1.66,0.81-2.75a12.93,12.93,0,0,1,1.52-2.1,6.19,6.19,0,0,1,1.84-3.64c0.1-.48.88-4.34,1.64-5.51a5.35,5.35,0,0,1,.59-0.47l0.48-.35c0-.25.3-1,1.73-2.28a6.23,6.23,0,0,1-.21-1.52,3.12,3.12,0,0,1,.25-1.31l0,0,0,0c0.94-.67,1.49-2.19,3-3.57V6.72L50,6.68c-0.71.67-2.59,0.74-2.61,3.23v0.17H47.18a2.31,2.31,0,0,0-.94.35,1.12,1.12,0,0,0-.63.77V14.7a5.1,5.1,0,0,1-.89,1.73l-0.11.17-0.15-.14a1,1,0,0,1-.41-0.77c0-.17,0-0.29,0-0.37a0.61,0.61,0,0,0-.37-0.49l-0.06,0V14.73s-0.13-.9-0.23-1.47a1.69,1.69,0,0,0-.13-0.65l-0.11-.07,0-.12a6.86,6.86,0,0,0,.4-2,1.68,1.68,0,0,0-.36-1.18,2.35,2.35,0,0,0-.41-0.33l-0.07,0V4.69l0,0a2.15,2.15,0,0,0,.4-1s0-.06,0-0.09l0-.19h0.19c6.12,0,6.68,0,12.69,0h0.17V5.85c0,0.37.4,0.43,0.43,1.05v7.92l-0.06.05a1.9,1.9,0,0,0-.53,1.48,4.68,4.68,0,0,0,.15,1.16l0,0.11-0.1.07c-1.26.88-1.91,4.39-2.67,5.29v2l-0.1,0s-1.75.76-2.08,1.66a2.25,2.25,0,0,0-.11.78,6,6,0,0,0,.12,1.11l0,0.14-0.13.05c-1.43.54-3.73,7-3.69,7.34v1.17l-0.18,0,0.09,0.09v0a1.18,1.18,0,0,0-.08.16c-0.07.15-.15,0.37-0.26,0.64-0.2.54-.46,1.26-0.73,2A24.21,24.21,0,0,1,45,43.66C45.22,44,45.24,44,45.26,44s0.18,0,.39,0c0.38,0,.54-0.22,2.2-1a5.24,5.24,0,0,0,2.06-.47,12.19,12.19,0,0,0,1.34-1.92,3.67,3.67,0,0,1,2.48-1.83,3.77,3.77,0,0,1,.79-1.83l0.15-.15,0.1,0.18a2.89,2.89,0,0,0,.23.35c1.38-.64.76-1.31,1.48-2.18l0-.06h1.22v0.17s0,0.17,0,.43A6.9,6.9,0,0,0,58,37.65Zm-37,2.91c0,0.53.3,1.58,0.3,2.57a3.68,3.68,0,0,1-.06.69,12.09,12.09,0,0,1-.75,2.18,14.07,14.07,0,0,0-1.25,2.18,13.75,13.75,0,0,0-.6,3v0.1l-0.09,0A20.29,20.29,0,0,0,15.85,53a5.79,5.79,0,0,0-2,1.82l0,0.1h-0.1a21.65,21.65,0,0,0-2.75.55,0.25,0.25,0,0,0-.12.05,0.57,0.57,0,0,1-.42.26c-0.5-.09-0.61-0.67-0.95-0.63a1,1,0,0,0-.64.37C8.63,56,8,56,7.26,56a18.18,18.18,0,0,1-2.63-.25,1.21,1.21,0,0,1-.52.08c-0.47,0-1.08-.1-1.41-0.1H2.53L2.44,56l-0.15-.14c-0.19-.17-0.44-0.4-0.52-0.45l-0.28-.18,0.31-.11a6,6,0,0,0,1.31-.69h0l0-.07c0-.07.07-0.18,0.11-0.3s0.18-.61.28-1c0.21-.8.42-1.77,0.56-2.51,0-2.54.15-3.84,0.15-5.17a16.09,16.09,0,0,0-.15-2.19c0-.31-0.18-2.65-0.38-4.34,0-2.74.16-5.55,0.16-7.21,0-.32,0-0.59,0-0.81V30.59H4a0.62,0.62,0,0,0,.52-0.38L4.44,28l-0.33-.7,0-3.17a2.4,2.4,0,0,1,.41-0.93,2,2,0,0,0,.07-0.66c0-.42,0-0.87-0.05-1L4.1,20.78v-11l0.07,0c0.41-.3.41-0.3,0.4-0.36s0-.25,0-0.56,0-.47,0-0.51h0A2.32,2.32,0,0,1,4.31,8L3.94,8a0.17,0.17,0,0,1-.15.1A0.33,0.33,0,0,1,3.6,8.06H3.45a0.17,0.17,0,0,1-.13-0.17,0.24,0.24,0,0,1,.06-0.13L3.16,7.5,1.72,6.13a1.16,1.16,0,0,0-.32-0.4,0.32,0.32,0,0,1-.15-0.29c0-.09,0-0.21,0-0.45a1.11,1.11,0,0,1,.09-0.68,2,2,0,0,0,.37-0.46l0-.08H4.08a5.07,5.07,0,0,1,1.73-.39c0.81-.1,1.65-0.16,1.93-0.16L10,3.29c2.31,0,3.16-.23,4.37-0.23a12,12,0,0,1,2,.18l0.11,0,0,0.11A2.55,2.55,0,0,0,17.68,4.6l0.25,0a2,2,0,0,1,1.13.32A6.43,6.43,0,0,1,21.3,9.49c0,1.24.28,2.41,0.28,3.33a1.81,1.81,0,0,1-.42,1.34l-1.61,3A25.65,25.65,0,0,1,17,20.61a1.28,1.28,0,0,0,.49.44A3.75,3.75,0,0,0,19,21.5a0.64,0.64,0,0,1,.56.67,2.64,2.64,0,0,1-.5,1.27,0.17,0.17,0,0,0,0,.13,0.87,0.87,0,0,0,.11.4,0.32,0.32,0,0,0,.16.17s0,0,.07-0.07l0.11-.17L19.62,24a1.91,1.91,0,0,1,.77,1c0,0.06-.12-0.06.4,0.35l0.09,0.07,0,0.11a14.22,14.22,0,0,0-.36,3,5.33,5.33,0,0,0,.35,2.08c0.12,0.36.85,0.55,0.92,1.09a0.5,0.5,0,0,1-.14.33c0,0.16,0,.57,0,1,0,0.28,0,.58,0,0.83,0,0.06,0,.11,0,0.17,0,1.36.25,2.67,0.25,3.86a4,4,0,0,1-.74,2.56A0.45,0.45,0,0,0,21.09,40.74ZM15.15,10.85a0.2,0.2,0,0,1,.09-0.21l0.63-.44c-0.71-.24-1.34.19-1.94-1h-0.2l-1.92.28,0.12-.27A0.43,0.43,0,0,0,12,9l-0.16.08a1.67,1.67,0,0,0-.1.61,0.65,0.65,0,0,1-.43.56v8.28a1.43,1.43,0,0,1,.44-0.08h0a0.86,0.86,0,0,1,.47.14c0.86-.26.5-2.37,3-2.67,0-.22,0-0.57,0-1,0-1,0-2.17.42-2.64A7.7,7.7,0,0,1,15.15,10.85Zm0.35,29.51c0-.29.16-0.55,0.15-0.73a0.33,0.33,0,0,0-.19-0.3l-0.21-.13,0.2-.14a0.37,0.37,0,0,0,.16-0.35c0-.51-0.57-1.41-0.58-2.26a1.29,1.29,0,0,1,.52-1.07,1.57,1.57,0,0,0-.31-1.31,1.53,1.53,0,0,1-.4-1.35c0-.48.43-1.34,0.42-1.84a0.3,0.3,0,0,0-.12-0.3L15,30.5l0.07-.15a1,1,0,0,0,.11-0.46,1.69,1.69,0,0,0-.41-1l-0.24-.26,0.35,0,0.11,0a2.78,2.78,0,0,1-.34-0.74,0.28,0.28,0,0,1,.12-0.24,0.21,0.21,0,0,0,.06-0.16,2.31,2.31,0,0,0-.68-1,10.4,10.4,0,0,1-1.79-1.38L11.29,24c0,0.56,0,1.58,0,2.52,0,0.68,0,1.31,0,1.7v0.05l0,0A1.79,1.79,0,0,0,11,29.32a9.26,9.26,0,0,0,.27,2v0l-0.46,2.23-0.08,0a0.48,0.48,0,0,0-.33.45s0,0,0,.05a0.5,0.5,0,0,0,.33.48l0.1,0v8.17l0,0.05a1,1,0,0,0-.39.5c0,0.15,0,.26-0.06.33a0.32,0.32,0,0,1-.07.15c0,0.42,0,1.38,0,3.45,0,0,0,1.07.06,1.51l0,0a0.16,0.16,0,0,1,0,.11,5.8,5.8,0,0,1-.49,1l-0.31.57a6.05,6.05,0,0,0,1.16-.25l1-.92h0.06c0.73,0,1.65-1.55,2.26-2s0.34-2.27.61-3.71V43.53l0,0h0l0-.08c0-.07.07-0.18,0.11-0.3s0.18-.58.28-0.91a10,10,0,0,0,.34-1.62h0A0.56,0.56,0,0,1,15.51,40.35Zm89.4,7.42a1.25,1.25,0,0,1,.17.63,2.16,2.16,0,0,1-.18.8c-0.24.55-.08,0.7-1.12,5.74l0,0.18-0.17-.05a8.31,8.31,0,0,1-2-.84c-2.3-2.24-2.91-2.37-3.88-2.37H96.92l0-.12a0.43,0.43,0,0,1,0-.16c0-.78,1.3-3.71,1.53-5a40.06,40.06,0,0,0,.18-4.22,12.89,12.89,0,0,0,0-1.41v0a31.62,31.62,0,0,0-.69-3.86c-0.39-1.79-1.08-3.56-1.54-3.6l-0.15,0,0-.15c0.13-1,.41-2.44.41-3a0.4,0.4,0,0,0,0-.16c-0.64-1.21-1.92-3.62-2.66-4a5,5,0,0,1,.05.59,3.8,3.8,0,0,1-.51,1.65,2.77,2.77,0,0,0-.42,1,0.15,0.15,0,0,0,0,0v0l0,0h0v0.06c0,1.14,1.11,10.23,1.11,11.08v0.12L94,40.87l0,0a0.74,0.74,0,0,0-.09.12,0.66,0.66,0,0,0-.12.35,0.12,0.12,0,0,0,0,0,3.18,3.18,0,0,1,.38.77c0,0.53.09,1.16,0.09,1.8a7.12,7.12,0,0,1-.39,2.61c0.06,1,.45,3.34.45,4.47a2.36,2.36,0,0,1,0,.4v0l0,0a0.93,0.93,0,0,1-.39.34,5.76,5.76,0,0,1,.07.86,12.72,12.72,0,0,1-.41,2.84l-0.13.55-0.19-.53a11.55,11.55,0,0,0-3.69-5.17c-1.26-1.05-2.27-1.36-2.36-2,0,0,1.52-5.37,2.18-6a1.51,1.51,0,0,0,.09-0.63,9,9,0,0,0-.1-1.2A2.93,2.93,0,0,0,89,40.28l-0.08-.05v-0.1c0-.09,0-1.48,0-3.26,0-3.39,0-8.24,0-8.75a5.8,5.8,0,0,1-.16-0.87h0l-0.06,0-0.21-1.85c-0.18-.26-0.29-0.76-0.36-0.77l-0.07,0V24.46s0-.46,0-0.92c0-.2,0-0.41,0-0.57a1.76,1.76,0,0,1-.14-0.58,3.59,3.59,0,0,0-.12-0.64h0l-0.08-.05V21.59s0-.05,0-0.15a3.41,3.41,0,0,0-.21-1.27,2,2,0,0,1-.17-1,4.8,4.8,0,0,0-.09-0.87l-0.05,0,0-2.23a1.13,1.13,0,0,1-.45-0.75c0-.07,0-0.12,0-0.14a0.72,0.72,0,0,0-.36-0.34l-0.06,0V14.75a16.81,16.81,0,0,1-.1-2,16.87,16.87,0,0,1,.1-2V10.67l0,0c0.71-.7,2.7-1.7,4-3.54C90,7,89.15,6.74,89,6.7l-0.07.09a0.64,0.64,0,0,1-.32.26,1.59,1.59,0,0,1-.46.12A0.85,0.85,0,0,1,87.69,7L87.61,7V6.9A4,4,0,0,0,86,4.67C85.25,4,84.57,3.61,84.34,3.41l-1.58-.34,0-.33,6.27-.17a2,2,0,0,1,1.09-.29,0.73,0.73,0,0,1,.73.47h2.28l0,0,0.11,0L93.7,3l1.2,0.39L96.6,3.89H97a3.59,3.59,0,0,1,.53,0,4.18,4.18,0,0,1,2,1,6.76,6.76,0,0,0,1,.83h0.1l2.22,4.68a3.69,3.69,0,0,1,.08,1c0,0.8-.06,1.79-0.06,1.79v0.08l-0.06,0a1.94,1.94,0,0,0-.16.43,2.45,2.45,0,0,1-.2.54c0,0.24,0,.52,0,0.77,0,0.56,0,1,0,1.09-0.81,3.19-2.31,5.75-5.08,5.86,0,0.39,0,.63,0,0.79a0.61,0.61,0,0,1-.27.58h0.11c0.33,0,.6-0.12,1-0.13,0.51,0,1.08.29,2,1.42a1.5,1.5,0,0,1,.56,1.34c0,0.11,0,.12.08,0.13a5.25,5.25,0,0,1,.64.26,0.36,0.36,0,0,1,.21.32,1,1,0,0,0,0,.15,1.1,1.1,0,0,0,.14.5,9.2,9.2,0,0,0,.34,1.45,9.35,9.35,0,0,1,.22,2.38,11.39,11.39,0,0,0,.18,2.13h0a0.54,0.54,0,0,1,.13.31c0,0.14.05,0.31,0.09,0.47a0.62,0.62,0,0,0,.27.54,0.42,0.42,0,0,0,.18-0.07l0.15-.1,0.08,0.16c0.22,0.42.76,4.73,0.82,5.08v0.07l0,0.06a7.09,7.09,0,0,0-.27,1.59,1,1,0,0,0,.44.17h0.07l0,0.06a5,5,0,0,1,.58,1.59l0,0.06,0,0.07a0.74,0.74,0,0,0-.17.44,10.11,10.11,0,0,1,.16,1.45,11.5,11.5,0,0,1-.27,2.26l0,0ZM97,16.72a5.46,5.46,0,0,1,.1-0.95l0-.2,0.1,0,0.06-.14a1.21,1.21,0,0,1,.16-0.34V14.22a2.25,2.25,0,0,0,.05-0.5,3.53,3.53,0,0,0-.46-1.7s-0.66-.93-1.44-1.86S93.87,8.31,93.5,8.34H93.13v12.8l0.51,0a2.45,2.45,0,0,0,.48,0,3.25,3.25,0,0,0,1.63-.88A21.54,21.54,0,0,0,97,17,2.16,2.16,0,0,1,97,16.72Zm24.39,5.17a8.78,8.78,0,0,1-.17,2.15l0,0,0,0c-0.12,0-.33.79-0.59,1.12,0,0.1,0,.21,0,0.32,0,0.52.07,1.13,0.07,1.73a3.09,3.09,0,0,1-.28,1.45,4.52,4.52,0,0,1-1,1.49L119,32.36a7.55,7.55,0,0,0-.32,1.57c0,0.41.25,3.66,0.25,6.1a11.66,11.66,0,0,1-.17,2.49,5.56,5.56,0,0,0-.33,2.23c0,0.21,0,.43,0,0.65a6.59,6.59,0,0,1-.36,2.49l-0.45,2.44a4.84,4.84,0,0,1-.9,1.9,1.73,1.73,0,0,1-.46.71,1.06,1.06,0,0,0-.36.3c-0.19.5-1.08,0.64-2.1,1a17.71,17.71,0,0,0-2.92.93l-0.12,0c-0.46,0-1.05-.55-1.27-0.53h0a1.83,1.83,0,0,1-1.23.54,10,10,0,0,1-1.74.19,1,1,0,0,1-.45-0.06l-0.2-.11L106,55a5,5,0,0,0,1.39-3c0-.07,0-0.14,0-0.22a8.38,8.38,0,0,0-.51-2.37l-0.06-.15,0.15-.06c0.62-.22,1.93-0.84,1.83-1.07a0.38,0.38,0,0,0,0-.19h-0.06a0.33,0.33,0,0,1-.34-0.19l-0.5-1.25-0.88-2,0.8-7.93a13.63,13.63,0,0,1-1.95-4.51V30.77c0-.37-0.39-0.43-0.43-1,0,0-.1-1.56-0.1-2.75a6,6,0,0,1,.08-1.2,2.71,2.71,0,0,0-.33-0.26L105,25.47l0.18-3a2.54,2.54,0,0,1-.16-0.68,5.86,5.86,0,0,0-.15-0.79v0l-0.08-.05V12.07l0.08-.05a3.61,3.61,0,0,0,.36-0.29V8.32l0.08,0A3.6,3.6,0,0,0,105.67,8V5.55C105.23,5.13,102,2,101.81,1.84l-0.22-.27h2.5l0,0.08a2.85,2.85,0,0,0,.26.39h1.46l0,0.13c0,0.43,2.06.68,3,1.74h1.43l0,0.08a4.59,4.59,0,0,0,.48.62h1.42l0.05,0.08a3.12,3.12,0,0,0,.26.39h1.86l0,0.08a2.88,2.88,0,0,0,.26.39h2l0.05,0.08c0.64,1.06,1.91,1.74,2.17,2.24,1.47,3.09,1.17,3.36,1.68,3.68l0.07,0-0.12,4.47a3.47,3.47,0,0,1,.25.71,4.73,4.73,0,0,0,.25.74l0.05,0v0.08S121.38,20,121.38,21.89Zm-6.56,7.36a2.09,2.09,0,0,1,.85-1.86c0.08-.45.39-2.55,1-3.12V20a3,3,0,0,1-.61-1.45,13.79,13.79,0,0,0-.33-1.34c-0.5-.74-1.55-1-1.65-2.16-1-.11-1.17-1-1.58-0.92-0.82,0-1.25-.06-1.87-0.06l-0.67,0-0.17,1.62,0.12,0.56s0.18,4.71.18,6.48c0,0.15,0,.28,0,0.38h0c0,0.08.1,0.19,0.14,0.29l0.19,0.42v0.06a6.38,6.38,0,0,0,.78,2.66l0.09,0-0.06,20.69a8.51,8.51,0,0,0,2.07-4.8c0-.07,0-0.15,0-0.27,0.49-1.66,1-2.21,1.18-3.16a0.32,0.32,0,0,1,0,0c0-.52,0-8.5.3-9.55C114.82,29.39,114.82,29.32,114.82,29.25ZM41.26,47.13L41,47a1.62,1.62,0,0,0-.64-0.14H40l0,0H39.89a1.64,1.64,0,0,0-.66.22l-0.09,0-0.08-.06a4.87,4.87,0,0,0-1.7-.18A13.75,13.75,0,0,0,34,47.2,2.15,2.15,0,0,1,33,48h0a0.27,0.27,0,0,1-.18-0.08h0a3,3,0,0,1-.6-0.49l-0.15-.1,0.11-.14c1.25-1.56.55-1.09,2-2.05a30.72,30.72,0,0,0,.37-5.61V39.1l0.07,0c0.39-.3.37-0.3,0.38-0.4s0-.21,0-0.4a6.37,6.37,0,0,1-.43-1.41A3.21,3.21,0,0,1,35.11,35L35,16.51l0.06,0a3.33,3.33,0,0,1,.31-0.23l0.06,0a0.41,0.41,0,0,0,0-.05A0.62,0.62,0,0,0,35,15.91L35,15.86,34.42,6.44a1.09,1.09,0,0,0-.91-0.67,1.13,1.13,0,0,1-.92-0.61A0.86,0.86,0,0,1,31.87,5a1.92,1.92,0,0,0-.55-0.55l-0.14-.1,0.11-.14c0.16-.21.37-0.47,0.42-0.56l0.06-.12,0.13,0a29.63,29.63,0,0,0,4.33.21A21.43,21.43,0,0,0,40,3.55l0.13-.05,0.07,0.12a5.43,5.43,0,0,0,.53.68l0,0V5.24l-0.12,0c-1.06.28-2.2,1.26-2.18,2.06,0,0.64.08,0.6,0.13,0.64a0.68,0.68,0,0,1,.3.77,0.89,0.89,0,0,1-.39.77,0.45,0.45,0,0,0-.26.4c0,1.39.2,5.14,0.2,8.32a31.11,31.11,0,0,1-.18,3.91,1.17,1.17,0,0,1,.19.59,3.69,3.69,0,0,0,.14.68v0l0.07,0,0.24,1.37-0.09.06a2,2,0,0,0-.4.33,1.54,1.54,0,0,0-.32,1.06c0,0.41.08,0.8,0.08,1a3.75,3.75,0,0,0,0,.5A5.28,5.28,0,0,0,38.29,29c0.05,0.28,0,.86.06,1.17a0.16,0.16,0,0,0,0,.12l0.07,0v0.08a5.55,5.55,0,0,1,.06.84,7.79,7.79,0,0,1-.06,1v0.07l-0.06,0a2.26,2.26,0,0,0-.41.33,1,1,0,0,0-.37.77A18.19,18.19,0,0,1,38,35.89v0.17a8.24,8.24,0,0,0,.59,1.63h0l0.07,0.05L38.47,41l-0.07,0a1.39,1.39,0,0,0-.39.32,0.77,0.77,0,0,0-.18.51,5.16,5.16,0,0,0,.21,1c0.36,1.48.24,0.66,2.94,2.61l0.06,0ZM56.6,56.57H50.54l0-.09a4.07,4.07,0,0,0-.26-0.38H48.81l0-.08a0.59,0.59,0,0,0-.44-0.41l-0.26,0a1,1,0,0,1-.75-0.47H43.15a1.05,1.05,0,0,1-1-.62c-0.86-.07-6.27-0.08-9.12-0.08H31.16l-0.05-.08a2.64,2.64,0,0,0-1.26-.62H28.27C28,54,25.75,55.4,25.56,56l-0.05.13-0.13,0a18.6,18.6,0,0,0-2.56-.23,3,3,0,0,0-1.33.21l-0.15.09L21.26,56a1.09,1.09,0,0,0-.38-0.41l-0.15-.11,0.11-.14a1,1,0,0,0,.4-0.74V54.53l1.27-.68c0.5-.49.43-0.28,1.53-1.28v-2l0.07,0a0.6,0.6,0,0,0,.36-0.45,0.6,0.6,0,0,0-.36-0.45L24,49.57V46L24.12,46a3.44,3.44,0,0,0,.36-0.29V44.13l0.07,0c0.41-.3.37-0.27,0.37-0.35s0-.17,0-0.33a1.45,1.45,0,0,0-.8-1.16L24,42.2v-6l0.1,0a0.46,0.46,0,0,0,.34-0.33,11.55,11.55,0,0,1-.1-1.55,10.46,10.46,0,0,1,.11-1.6V32.65l0.06,0a3.62,3.62,0,0,0,.36-0.29v-4.7l0.07,0a1.65,1.65,0,0,0,.48-1s0,0,0-.07A1.44,1.44,0,0,0,25,25.62l-0.07,0V19a2.69,2.69,0,0,0-.36-0.29l-0.07,0V15.1l0.07,0a7.29,7.29,0,0,0,.8-0.76c0-.25.09-1.17,0.09-2a5.83,5.83,0,0,0-.08-1.12,3,3,0,0,0-.38-0.3l-0.15-.1L25,10.63a6.33,6.33,0,0,0,.72-2.07v0a7.1,7.1,0,0,0-.75-2.41,1,1,0,0,0-.86-0.25H23.89l0,0.07L23.7,5.84c-0.51-.38.17-0.64-2.18-2.35l-0.14-.11,0.11-.14a1,1,0,0,0,.4-0.75l0-.13h0.77l0.05,0.08a3,3,0,0,0,.26.38h3.48l0,0.08a1.35,1.35,0,0,0,1,.9c0.14,0,.27-0.07.46-0.07a0.42,0.42,0,0,1,.26.1,18.46,18.46,0,0,0,1.92,2.08l0.07,0v4.39l-0.07.05a0.56,0.56,0,0,0-.36.57v0h0a1.56,1.56,0,0,0,.8.88l0.07,0v2L30.59,14a2.79,2.79,0,0,0-.36.28v9.22a2.43,2.43,0,0,1,.85.82,10,10,0,0,1,.25,3c0,2.78-.23,6.49-0.23,6.49v0.08l-0.07,0a3,3,0,0,0-.36.29v3.13c0.13,0.11.24,0.21,0.36,0.29l0.06,0v0.07a6.51,6.51,0,0,1,0,.86c0,0.73,0,1.63,0,1.64v0.13L31,40.4c-0.53.08-.49,0.43-0.71,1.1a1,1,0,0,1,.41.82v0.14a0.84,0.84,0,0,1-.43.9v2l-0.07.05a3.19,3.19,0,0,0-.36.28v2.94l-0.07.05a0.84,0.84,0,0,0-.37.61,0.58,0.58,0,0,0,0,.14,1.35,1.35,0,0,1,.47,1.28c0.8,0,1.39.11,2.12,0.11a8.76,8.76,0,0,0,1.29-.1,3,3,0,0,1,1.25-1.06l0.2,0c0.74,0,2.07.67,3.53,0.67a3.86,3.86,0,0,0,2.11-.58A0.83,0.83,0,0,1,41,49.37a13.22,13.22,0,0,1,1.62-.18c1.33-.09,3.12-0.12,4.93-0.12,3.86,0,7.85.14,7.85,0.14h0.16v5.54h0l0.05,0.12,0.2,0.4a10.46,10.46,0,0,0,.59,1ZM123.25,4.42c0,0.54-.26,1.27-2.06,1.27s-2.08-.73-2.08-1.27V2.69c0-.53.28-1.27,2.08-1.27s2.06,0.74,2.06,1.27V4.42Zm-0.36-1.76c0-.41-0.28-0.9-1.7-0.9s-1.71.49-1.71,0.9V4.45c0,0.41.29,0.91,1.71,0.91s1.7-.49,1.7-0.9V2.66Zm-2.24,1.26V4.8a0.07,0.07,0,0,1-.07.09h-0.22a0.08,0.08,0,0,1-.08-0.09V2.39a0.07,0.07,0,0,1,.08-0.09h0.93c0.75,0,.93.36,0.93,0.69V3.23a0.64,0.64,0,0,1-.5.64l0.4,0.93a0.07,0.07,0,0,1-.08.09h-0.23a0.1,0.1,0,0,1-.09-0.09l-0.37-.88h-0.71Zm0-1.33v1h0.6a0.49,0.49,0,0,0,.6-0.42V3a0.49,0.49,0,0,0-.6-0.42h-0.6Z"></path>
</g>
</svg>
